<?xml version="1.0" encoding="UTF-8" standalone="no"?><svg xmlns="http://www.w3.org/2000/svg" xmlns:xlink="http://www.w3.org/1999/xlink" contentScriptType="application/ecmascript" contentStyleType="text/css" height="856px" preserveAspectRatio="none" style="width:690px;height:856px;" version="1.1" viewBox="0 0 690 856" width="690px" zoomAndPan="magnify"><defs><filter height="300%" id="f1w63whutjw4fq" width="300%" x="-1" y="-1"><feGaussianBlur result="blurOut" stdDeviation="2.0"/><feColorMatrix in="blurOut" result="blurOut2" type="matrix" values="0 0 0 0 0 0 0 0 0 0 0 0 0 0 0 0 0 0 .4 0"/><feOffset dx="4.0" dy="4.0" in="blurOut2" result="blurOut3"/><feBlend in="SourceGraphic" in2="blurOut3" mode="normal"/></filter></defs><g><text fill="#000000" font-family="sans-serif" font-size="18" lengthAdjust="spacingAndGlyphs" textLength="293" x="199.5" y="16.708">Class Diagram for process-results</text><!--class Args--><rect fill="#FEFECE" filter="url(#f1w63whutjw4fq)" height="214.4609" id="Args" style="stroke: #A80036; stroke-width: 1.5;" width="109" x="399" y="153.9531"/><ellipse cx="436.05" cy="169.9531" fill="#ADD1B2" rx="11" ry="11" style="stroke: #A80036; stroke-width: 1.0;"/><path d="M439.0188,175.5938 Q438.4406,175.8906 437.8,176.0313 Q437.1594,176.1875 436.4563,176.1875 Q433.9563,176.1875 432.6281,174.5469 Q431.3156,172.8906 431.3156,169.7656 Q431.3156,166.6406 432.6281,164.9844 Q433.9563,163.3281 436.4563,163.3281 Q437.1594,163.3281 437.8,163.4844 Q438.4563,163.6406 439.0188,163.9375 L439.0188,166.6563 Q438.3938,166.0781 437.8,165.8125 Q437.2063,165.5313 436.5813,165.5313 Q435.2375,165.5313 434.55,166.6094 Q433.8625,167.6719 433.8625,169.7656 Q433.8625,171.8594 434.55,172.9375 Q435.2375,174 436.5813,174 Q437.2063,174 437.8,173.7344 Q438.3938,173.4531 439.0188,172.875 L439.0188,175.5938 Z "/><text fill="#000000" font-family="sans-serif" font-size="12" lengthAdjust="spacingAndGlyphs" textLength="28" x="454.95" y="174.1074">Args</text><line style="stroke: #A80036; stroke-width: 1.5;" x1="400" x2="507" y1="185.9531" y2="185.9531"/><rect fill="none" height="6" style="stroke: #C82930; stroke-width: 1.0;" width="6" x="407" y="194.8555"/><text fill="#000000" font-family="sans-serif" font-size="11" lengthAdjust="spacingAndGlyphs" textLength="50" x="419" y="200.1636">__rootdir</text><rect fill="none" height="6" style="stroke: #C82930; stroke-width: 1.0;" width="6" x="407" y="207.6602"/><text fill="#000000" font-family="sans-serif" font-size="11" lengthAdjust="spacingAndGlyphs" textLength="41" x="419" y="212.9683">__raw[]</text><rect fill="none" height="6" style="stroke: #C82930; stroke-width: 1.0;" width="6" x="407" y="220.4648"/><text fill="#000000" font-family="sans-serif" font-size="11" lengthAdjust="spacingAndGlyphs" textLength="60" x="419" y="225.7729">__cooked[]</text><line style="stroke: #A80036; stroke-width: 1.5;" x1="400" x2="507" y1="232.3672" y2="232.3672"/><rect fill="#F24D5C" height="6" style="stroke: #C82930; stroke-width: 1.0;" width="6" x="407" y="241.2695"/><text fill="#000000" font-family="sans-serif" font-size="11" lengthAdjust="spacingAndGlyphs" textLength="49" x="419" y="246.5776">__init__()</text><rect fill="#F24D5C" height="6" style="stroke: #C82930; stroke-width: 1.0;" width="6" x="407" y="254.0742"/><text fill="#000000" font-family="sans-serif" font-size="11" lengthAdjust="spacingAndGlyphs" textLength="75" x="419" y="259.3823">__absresdir()</text><rect fill="#F24D5C" height="6" style="stroke: #C82930; stroke-width: 1.0;" width="6" x="407" y="266.8789"/><text fill="#000000" font-family="sans-serif" font-size="11" lengthAdjust="spacingAndGlyphs" textLength="73" x="419" y="272.187">__detailsdir()</text><rect fill="#F24D5C" height="6" style="stroke: #C82930; stroke-width: 1.0;" width="6" x="407" y="279.6836"/><text fill="#000000" font-family="sans-serif" font-size="11" lengthAdjust="spacingAndGlyphs" textLength="64" x="419" y="284.9917">__readme()</text><rect fill="#F24D5C" height="6" style="stroke: #C82930; stroke-width: 1.0;" width="6" x="407" y="292.4883"/><text fill="#000000" font-family="sans-serif" font-size="11" lengthAdjust="spacingAndGlyphs" textLength="63" x="419" y="297.7964">__resfiles()</text><rect fill="#F24D5C" height="6" style="stroke: #C82930; stroke-width: 1.0;" width="6" x="407" y="305.293"/><text fill="#000000" font-family="sans-serif" font-size="11" lengthAdjust="spacingAndGlyphs" textLength="64" x="419" y="310.6011">__log_raw()</text><rect fill="#F24D5C" height="6" style="stroke: #C82930; stroke-width: 1.0;" width="6" x="407" y="318.0977"/><text fill="#000000" font-family="sans-serif" font-size="11" lengthAdjust="spacingAndGlyphs" textLength="83" x="419" y="323.4058">__log_cooked()</text><ellipse cx="410" cy="333.9023" fill="#84BE84" rx="3" ry="3" style="stroke: #038048; stroke-width: 1.0;"/><text fill="#000000" font-family="sans-serif" font-size="11" lengthAdjust="spacingAndGlyphs" textLength="61" x="419" y="336.2104">abslogdir()</text><ellipse cx="410" cy="346.707" fill="#84BE84" rx="3" ry="3" style="stroke: #038048; stroke-width: 1.0;"/><text fill="#000000" font-family="sans-serif" font-size="11" lengthAdjust="spacingAndGlyphs" textLength="48" x="419" y="349.0151">all_ags()</text><ellipse cx="410" cy="359.5117" fill="#84BE84" rx="3" ry="3" style="stroke: #038048; stroke-width: 1.0;"/><text fill="#000000" font-family="sans-serif" font-size="11" lengthAdjust="spacingAndGlyphs" textLength="57" x="419" y="361.8198">log_args()</text><!--class Score--><rect fill="#FEFECE" filter="url(#f1w63whutjw4fq)" height="137.6328" id="Score" style="stroke: #A80036; stroke-width: 1.5;" width="91" x="6" y="707.9531"/><ellipse cx="31.35" cy="723.9531" fill="#ADD1B2" rx="11" ry="11" style="stroke: #A80036; stroke-width: 1.0;"/><path d="M34.3188,729.5938 Q33.7406,729.8906 33.1,730.0313 Q32.4594,730.1875 31.7563,730.1875 Q29.2563,730.1875 27.9281,728.5469 Q26.6156,726.8906 26.6156,723.7656 Q26.6156,720.6406 27.9281,718.9844 Q29.2563,717.3281 31.7563,717.3281 Q32.4594,717.3281 33.1,717.4844 Q33.7563,717.6406 34.3188,717.9375 L34.3188,720.6563 Q33.6938,720.0781 33.1,719.8125 Q32.5063,719.5313 31.8813,719.5313 Q30.5375,719.5313 29.85,720.6094 Q29.1625,721.6719 29.1625,723.7656 Q29.1625,725.8594 29.85,726.9375 Q30.5375,728 31.8813,728 Q32.5063,728 33.1,727.7344 Q33.6938,727.4531 34.3188,726.875 L34.3188,729.5938 Z "/><text fill="#000000" font-family="sans-serif" font-size="12" lengthAdjust="spacingAndGlyphs" textLength="36" x="47.65" y="728.1074">Score</text><line style="stroke: #A80036; stroke-width: 1.5;" x1="7" x2="96" y1="739.9531" y2="739.9531"/><rect fill="none" height="6" style="stroke: #C82930; stroke-width: 1.0;" width="6" x="14" y="748.8555"/><text fill="#000000" font-family="sans-serif" font-size="11" lengthAdjust="spacingAndGlyphs" textLength="65" x="26" y="754.1636">__geomean</text><rect fill="none" height="6" style="stroke: #C82930; stroke-width: 1.0;" width="6" x="14" y="761.6602"/><text fill="#000000" font-family="sans-serif" font-size="11" lengthAdjust="spacingAndGlyphs" textLength="47" x="26" y="766.9683">__geosd</text><line style="stroke: #A80036; stroke-width: 1.5;" x1="7" x2="96" y1="773.5625" y2="773.5625"/><rect fill="#F24D5C" height="6" style="stroke: #C82930; stroke-width: 1.0;" width="6" x="14" y="782.4648"/><text fill="#000000" font-family="sans-serif" font-size="11" lengthAdjust="spacingAndGlyphs" textLength="49" x="26" y="787.7729">__init__()</text><ellipse cx="17" cy="798.2695" fill="#84BE84" rx="3" ry="3" style="stroke: #038048; stroke-width: 1.0;"/><text fill="#000000" font-family="sans-serif" font-size="11" lengthAdjust="spacingAndGlyphs" textLength="61" x="26" y="800.5776">geomean()</text><ellipse cx="17" cy="811.0742" fill="#84BE84" rx="3" ry="3" style="stroke: #038048; stroke-width: 1.0;"/><text fill="#000000" font-family="sans-serif" font-size="11" lengthAdjust="spacingAndGlyphs" textLength="43" x="26" y="813.3823">geosd()</text><ellipse cx="17" cy="823.8789" fill="#84BE84" rx="3" ry="3" style="stroke: #038048; stroke-width: 1.0;"/><text fill="#000000" font-family="sans-serif" font-size="11" lengthAdjust="spacingAndGlyphs" textLength="57" x="26" y="826.187">range_lo()</text><ellipse cx="17" cy="836.6836" fill="#84BE84" rx="3" ry="3" style="stroke: #038048; stroke-width: 1.0;"/><text fill="#000000" font-family="sans-serif" font-size="11" lengthAdjust="spacingAndGlyphs" textLength="57" x="26" y="838.9917">range_hi()</text><!--class ResultDetails--><rect fill="#FEFECE" filter="url(#f1w63whutjw4fq)" height="124.8281" id="ResultDetails" style="stroke: #A80036; stroke-width: 1.5;" width="114" x="200.5" y="714.4531"/><ellipse cx="215.5" cy="730.4531" fill="#ADD1B2" rx="11" ry="11" style="stroke: #A80036; stroke-width: 1.0;"/><path d="M218.4688,736.0938 Q217.8906,736.3906 217.25,736.5313 Q216.6094,736.6875 215.9063,736.6875 Q213.4063,736.6875 212.0781,735.0469 Q210.7656,733.3906 210.7656,730.2656 Q210.7656,727.1406 212.0781,725.4844 Q213.4063,723.8281 215.9063,723.8281 Q216.6094,723.8281 217.25,723.9844 Q217.9063,724.1406 218.4688,724.4375 L218.4688,727.1563 Q217.8438,726.5781 217.25,726.3125 Q216.6563,726.0313 216.0313,726.0313 Q214.6875,726.0313 214,727.1094 Q213.3125,728.1719 213.3125,730.2656 Q213.3125,732.3594 214,733.4375 Q214.6875,734.5 216.0313,734.5 Q216.6563,734.5 217.25,734.2344 Q217.8438,733.9531 218.4688,733.375 L218.4688,736.0938 Z "/><text fill="#000000" font-family="sans-serif" font-size="12" lengthAdjust="spacingAndGlyphs" textLength="82" x="229.5" y="734.6074">ResultDetails</text><line style="stroke: #A80036; stroke-width: 1.5;" x1="201.5" x2="313.5" y1="746.4531" y2="746.4531"/><rect fill="none" height="6" style="stroke: #C82930; stroke-width: 1.0;" width="6" x="208.5" y="755.3555"/><text fill="#000000" font-family="sans-serif" font-size="11" lengthAdjust="spacingAndGlyphs" textLength="48" x="220.5" y="760.6636">__resfile</text><rect fill="none" height="6" style="stroke: #C82930; stroke-width: 1.0;" width="6" x="208.5" y="768.1602"/><text fill="#000000" font-family="sans-serif" font-size="11" lengthAdjust="spacingAndGlyphs" textLength="75" x="220.5" y="773.4683">__json_data[]</text><line style="stroke: #A80036; stroke-width: 1.5;" x1="201.5" x2="313.5" y1="780.0625" y2="780.0625"/><rect fill="#F24D5C" height="6" style="stroke: #C82930; stroke-width: 1.0;" width="6" x="208.5" y="788.9648"/><text fill="#000000" font-family="sans-serif" font-size="11" lengthAdjust="spacingAndGlyphs" textLength="49" x="220.5" y="794.2729">__init__()</text><ellipse cx="211.5" cy="804.7695" fill="#84BE84" rx="3" ry="3" style="stroke: #038048; stroke-width: 1.0;"/><text fill="#000000" font-family="sans-serif" font-size="11" lengthAdjust="spacingAndGlyphs" textLength="35" x="220.5" y="807.0776">desc()</text><ellipse cx="211.5" cy="817.5742" fill="#84BE84" rx="3" ry="3" style="stroke: #038048; stroke-width: 1.0;"/><text fill="#000000" font-family="sans-serif" font-size="11" lengthAdjust="spacingAndGlyphs" textLength="63" x="220.5" y="819.8823">json_data()</text><ellipse cx="211.5" cy="830.3789" fill="#84BE84" rx="3" ry="3" style="stroke: #038048; stroke-width: 1.0;"/><text fill="#000000" font-family="sans-serif" font-size="11" lengthAdjust="spacingAndGlyphs" textLength="80" x="220.5" y="832.687">details_page()</text><!--class InvalidResultError--><rect fill="#FEFECE" filter="url(#f1w63whutjw4fq)" height="86.4141" id="InvalidResultError" style="stroke: #A80036; stroke-width: 1.5;" width="162" x="375.5" y="733.9531"/><ellipse cx="399.95" cy="749.9531" fill="#ADD1B2" rx="11" ry="11" style="stroke: #A80036; stroke-width: 1.0;"/><path d="M402.9188,755.5938 Q402.3406,755.8906 401.7,756.0313 Q401.0594,756.1875 400.3563,756.1875 Q397.8563,756.1875 396.5281,754.5469 Q395.2156,752.8906 395.2156,749.7656 Q395.2156,746.6406 396.5281,744.9844 Q397.8563,743.3281 400.3563,743.3281 Q401.0594,743.3281 401.7,743.4844 Q402.3563,743.6406 402.9188,743.9375 L402.9188,746.6563 Q402.2938,746.0781 401.7,745.8125 Q401.1063,745.5313 400.4813,745.5313 Q399.1375,745.5313 398.45,746.6094 Q397.7625,747.6719 397.7625,749.7656 Q397.7625,751.8594 398.45,752.9375 Q399.1375,754 400.4813,754 Q401.1063,754 401.7,753.7344 Q402.2938,753.4531 402.9188,752.875 L402.9188,755.5938 Z "/><text fill="#000000" font-family="sans-serif" font-size="12" lengthAdjust="spacingAndGlyphs" textLength="109" x="416.05" y="754.1074">InvalidResultError</text><line style="stroke: #A80036; stroke-width: 1.5;" x1="376.5" x2="536.5" y1="765.9531" y2="765.9531"/><ellipse cx="386.5" cy="777.8555" fill="none" rx="3" ry="3" style="stroke: #038048; stroke-width: 1.0;"/><text fill="#000000" font-family="sans-serif" font-size="11" lengthAdjust="spacingAndGlyphs" textLength="82" x="395.5" y="780.1636">missing_fields</text><ellipse cx="386.5" cy="790.6602" fill="none" rx="3" ry="3" style="stroke: #038048; stroke-width: 1.0;"/><text fill="#000000" font-family="sans-serif" font-size="11" lengthAdjust="spacingAndGlyphs" textLength="136" x="395.5" y="792.9683">missing_platform_fields</text><line style="stroke: #A80036; stroke-width: 1.5;" x1="376.5" x2="536.5" y1="799.5625" y2="799.5625"/><rect fill="#F24D5C" height="6" style="stroke: #C82930; stroke-width: 1.0;" width="6" x="383.5" y="808.4648"/><text fill="#000000" font-family="sans-serif" font-size="11" lengthAdjust="spacingAndGlyphs" textLength="49" x="395.5" y="813.7729">__init__()</text><!--class Result--><rect fill="#FEFECE" filter="url(#f1w63whutjw4fq)" height="201.6563" id="Result" style="stroke: #A80036; stroke-width: 1.5;" width="134" x="190.5" y="428.9531"/><ellipse cx="233.85" cy="444.9531" fill="#ADD1B2" rx="11" ry="11" style="stroke: #A80036; stroke-width: 1.0;"/><path d="M236.8188,450.5938 Q236.2406,450.8906 235.6,451.0313 Q234.9594,451.1875 234.2563,451.1875 Q231.7563,451.1875 230.4281,449.5469 Q229.1156,447.8906 229.1156,444.7656 Q229.1156,441.6406 230.4281,439.9844 Q231.7563,438.3281 234.2563,438.3281 Q234.9594,438.3281 235.6,438.4844 Q236.2563,438.6406 236.8188,438.9375 L236.8188,441.6563 Q236.1938,441.0781 235.6,440.8125 Q235.0063,440.5313 234.3813,440.5313 Q233.0375,440.5313 232.35,441.6094 Q231.6625,442.6719 231.6625,444.7656 Q231.6625,446.8594 232.35,447.9375 Q233.0375,449 234.3813,449 Q235.0063,449 235.6,448.7344 Q236.1938,448.4531 236.8188,447.875 L236.8188,450.5938 Z "/><text fill="#000000" font-family="sans-serif" font-size="12" lengthAdjust="spacingAndGlyphs" textLength="39" x="254.15" y="449.1074">Result</text><line style="stroke: #A80036; stroke-width: 1.5;" x1="191.5" x2="323.5" y1="460.9531" y2="460.9531"/><rect fill="none" height="6" style="stroke: #C82930; stroke-width: 1.0;" width="6" x="198.5" y="469.8555"/><text fill="#000000" font-family="sans-serif" font-size="11" lengthAdjust="spacingAndGlyphs" textLength="89" x="210.5" y="475.1636">__result_details</text><rect fill="none" height="6" style="stroke: #C82930; stroke-width: 1.0;" width="6" x="198.5" y="482.6602"/><text fill="#000000" font-family="sans-serif" font-size="11" lengthAdjust="spacingAndGlyphs" textLength="59" x="210.5" y="487.9683">__scores[]</text><line style="stroke: #A80036; stroke-width: 1.5;" x1="191.5" x2="323.5" y1="494.5625" y2="494.5625"/><rect fill="#F24D5C" height="6" style="stroke: #C82930; stroke-width: 1.0;" width="6" x="198.5" y="503.4648"/><text fill="#000000" font-family="sans-serif" font-size="11" lengthAdjust="spacingAndGlyphs" textLength="49" x="210.5" y="508.7729">__init__()</text><rect fill="#F24D5C" height="6" style="stroke: #C82930; stroke-width: 1.0;" width="6" x="198.5" y="516.2695"/><text fill="#000000" font-family="sans-serif" font-size="11" lengthAdjust="spacingAndGlyphs" textLength="95" x="210.5" y="521.5776">__validate_data()</text><ellipse cx="201.5" cy="532.0742" fill="#84BE84" rx="3" ry="3" style="stroke: #038048; stroke-width: 1.0;"/><text fill="#000000" font-family="sans-serif" font-size="11" lengthAdjust="spacingAndGlyphs" textLength="80" x="210.5" y="534.3823">write_details()</text><ellipse cx="201.5" cy="544.8789" fill="#84BE84" rx="3" ry="3" style="stroke: #038048; stroke-width: 1.0;"/><text fill="#000000" font-family="sans-serif" font-size="11" lengthAdjust="spacingAndGlyphs" textLength="101" x="210.5" y="547.187">details_wikipage()</text><ellipse cx="201.5" cy="557.6836" fill="#84BE84" rx="3" ry="3" style="stroke: #038048; stroke-width: 1.0;"/><text fill="#000000" font-family="sans-serif" font-size="11" lengthAdjust="spacingAndGlyphs" textLength="35" x="210.5" y="559.9917">desc()</text><ellipse cx="201.5" cy="570.4883" fill="#84BE84" rx="3" ry="3" style="stroke: #038048; stroke-width: 1.0;"/><text fill="#000000" font-family="sans-serif" font-size="11" lengthAdjust="spacingAndGlyphs" textLength="33" x="210.5" y="572.7964">arch()</text><ellipse cx="201.5" cy="583.293" fill="#84BE84" rx="3" ry="3" style="stroke: #038048; stroke-width: 1.0;"/><text fill="#000000" font-family="sans-serif" font-size="11" lengthAdjust="spacingAndGlyphs" textLength="108" x="210.5" y="585.6011">embench_version()</text><ellipse cx="201.5" cy="596.0977" fill="#84BE84" rx="3" ry="3" style="stroke: #038048; stroke-width: 1.0;"/><text fill="#000000" font-family="sans-serif" font-size="11" lengthAdjust="spacingAndGlyphs" textLength="57" x="210.5" y="598.4058">cpu_mhz()</text><ellipse cx="201.5" cy="608.9023" fill="#84BE84" rx="3" ry="3" style="stroke: #038048; stroke-width: 1.0;"/><text fill="#000000" font-family="sans-serif" font-size="11" lengthAdjust="spacingAndGlyphs" textLength="46" x="210.5" y="611.2104">details()</text><ellipse cx="201.5" cy="621.707" fill="#84BE84" rx="3" ry="3" style="stroke: #038048; stroke-width: 1.0;"/><text fill="#000000" font-family="sans-serif" font-size="11" lengthAdjust="spacingAndGlyphs" textLength="80" x="210.5" y="624.0151">details_page()</text><!--class ResultSet--><rect fill="#FEFECE" filter="url(#f1w63whutjw4fq)" height="112.0234" id="ResultSet" style="stroke: #A80036; stroke-width: 1.5;" width="106" x="204.5" y="204.9531"/><ellipse cx="225.8" cy="220.9531" fill="#ADD1B2" rx="11" ry="11" style="stroke: #A80036; stroke-width: 1.0;"/><path d="M228.7688,226.5938 Q228.1906,226.8906 227.55,227.0313 Q226.9094,227.1875 226.2063,227.1875 Q223.7063,227.1875 222.3781,225.5469 Q221.0656,223.8906 221.0656,220.7656 Q221.0656,217.6406 222.3781,215.9844 Q223.7063,214.3281 226.2063,214.3281 Q226.9094,214.3281 227.55,214.4844 Q228.2063,214.6406 228.7688,214.9375 L228.7688,217.6563 Q228.1438,217.0781 227.55,216.8125 Q226.9563,216.5313 226.3313,216.5313 Q224.9875,216.5313 224.3,217.6094 Q223.6125,218.6719 223.6125,220.7656 Q223.6125,222.8594 224.3,223.9375 Q224.9875,225 226.3313,225 Q226.9563,225 227.55,224.7344 Q228.1438,224.4531 228.7688,223.875 L228.7688,226.5938 Z "/><text fill="#000000" font-family="sans-serif" font-size="12" lengthAdjust="spacingAndGlyphs" textLength="60" x="241.2" y="225.1074">ResultSet</text><line style="stroke: #A80036; stroke-width: 1.5;" x1="205.5" x2="309.5" y1="236.9531" y2="236.9531"/><rect fill="none" height="6" style="stroke: #C82930; stroke-width: 1.0;" width="6" x="212.5" y="245.8555"/><text fill="#000000" font-family="sans-serif" font-size="11" lengthAdjust="spacingAndGlyphs" textLength="60" x="224.5" y="251.1636">__results[]</text><line style="stroke: #A80036; stroke-width: 1.5;" x1="205.5" x2="309.5" y1="257.7578" y2="257.7578"/><rect fill="#F24D5C" height="6" style="stroke: #C82930; stroke-width: 1.0;" width="6" x="212.5" y="266.6602"/><text fill="#000000" font-family="sans-serif" font-size="11" lengthAdjust="spacingAndGlyphs" textLength="49" x="224.5" y="271.9683">__init()__</text><rect fill="#F24D5C" height="6" style="stroke: #C82930; stroke-width: 1.0;" width="6" x="212.5" y="279.4648"/><text fill="#000000" font-family="sans-serif" font-size="11" lengthAdjust="spacingAndGlyphs" textLength="80" x="224.5" y="284.7729">__collate_file()</text><rect fill="#F24D5C" height="6" style="stroke: #C82930; stroke-width: 1.0;" width="6" x="212.5" y="292.2695"/><text fill="#000000" font-family="sans-serif" font-size="11" lengthAdjust="spacingAndGlyphs" textLength="31" x="224.5" y="297.5776">sort()</text><rect fill="#F24D5C" height="6" style="stroke: #C82930; stroke-width: 1.0;" width="6" x="212.5" y="305.0742"/><text fill="#000000" font-family="sans-serif" font-size="11" lengthAdjust="spacingAndGlyphs" textLength="48" x="224.5" y="310.3823">results()</text><!--class Logger--><rect fill="#FEFECE" filter="url(#f1w63whutjw4fq)" height="124.8281" id="Logger" style="stroke: #A80036; stroke-width: 1.5;" width="79" x="581" y="198.4531"/><ellipse cx="597.8" cy="214.4531" fill="#ADD1B2" rx="11" ry="11" style="stroke: #A80036; stroke-width: 1.0;"/><path d="M600.7688,220.0938 Q600.1906,220.3906 599.55,220.5313 Q598.9094,220.6875 598.2063,220.6875 Q595.7063,220.6875 594.3781,219.0469 Q593.0656,217.3906 593.0656,214.2656 Q593.0656,211.1406 594.3781,209.4844 Q595.7063,207.8281 598.2063,207.8281 Q598.9094,207.8281 599.55,207.9844 Q600.2063,208.1406 600.7688,208.4375 L600.7688,211.1563 Q600.1438,210.5781 599.55,210.3125 Q598.9563,210.0313 598.3313,210.0313 Q596.9875,210.0313 596.3,211.1094 Q595.6125,212.1719 595.6125,214.2656 Q595.6125,216.3594 596.3,217.4375 Q596.9875,218.5 598.3313,218.5 Q598.9563,218.5 599.55,218.2344 Q600.1438,217.9531 600.7688,217.375 L600.7688,220.0938 Z "/><text fill="#000000" font-family="sans-serif" font-size="12" lengthAdjust="spacingAndGlyphs" textLength="43" x="612.2" y="218.6074">Logger</text><line style="stroke: #A80036; stroke-width: 1.5;" x1="582" x2="659" y1="230.4531" y2="230.4531"/><rect fill="none" height="6" style="stroke: #C82930; stroke-width: 1.0;" width="6" x="589" y="239.3555"/><text fill="#000000" font-family="sans-serif" font-size="11" lengthAdjust="spacingAndGlyphs" textLength="29" x="601" y="244.6636">__log</text><line style="stroke: #A80036; stroke-width: 1.5;" x1="582" x2="659" y1="251.2578" y2="251.2578"/><rect fill="#F24D5C" height="6" style="stroke: #C82930; stroke-width: 1.0;" width="6" x="589" y="260.1602"/><text fill="#000000" font-family="sans-serif" font-size="11" lengthAdjust="spacingAndGlyphs" textLength="49" x="601" y="265.4683">__init__()</text><ellipse cx="592" cy="275.9648" fill="#84BE84" rx="3" ry="3" style="stroke: #038048; stroke-width: 1.0;"/><text fill="#000000" font-family="sans-serif" font-size="11" lengthAdjust="spacingAndGlyphs" textLength="29" x="601" y="278.2729">info()</text><ellipse cx="592" cy="288.7695" fill="#84BE84" rx="3" ry="3" style="stroke: #038048; stroke-width: 1.0;"/><text fill="#000000" font-family="sans-serif" font-size="11" lengthAdjust="spacingAndGlyphs" textLength="43" x="601" y="291.0776">debug()</text><ellipse cx="592" cy="301.5742" fill="#84BE84" rx="3" ry="3" style="stroke: #038048; stroke-width: 1.0;"/><text fill="#000000" font-family="sans-serif" font-size="11" lengthAdjust="spacingAndGlyphs" textLength="53" x="601" y="303.8823">warning()</text><ellipse cx="592" cy="314.3789" fill="#84BE84" rx="3" ry="3" style="stroke: #038048; stroke-width: 1.0;"/><text fill="#000000" font-family="sans-serif" font-size="11" lengthAdjust="spacingAndGlyphs" textLength="37" x="601" y="316.687">error()</text><!--class Readme--><rect fill="#FEFECE" filter="url(#f1w63whutjw4fq)" height="201.6563" id="Readme" style="stroke: #A80036; stroke-width: 1.5;" width="125" x="29" y="428.9531"/><ellipse cx="62.9" cy="444.9531" fill="#ADD1B2" rx="11" ry="11" style="stroke: #A80036; stroke-width: 1.0;"/><path d="M65.8688,450.5938 Q65.2906,450.8906 64.65,451.0313 Q64.0094,451.1875 63.3063,451.1875 Q60.8063,451.1875 59.4781,449.5469 Q58.1656,447.8906 58.1656,444.7656 Q58.1656,441.6406 59.4781,439.9844 Q60.8063,438.3281 63.3063,438.3281 Q64.0094,438.3281 64.65,438.4844 Q65.3063,438.6406 65.8688,438.9375 L65.8688,441.6563 Q65.2438,441.0781 64.65,440.8125 Q64.0563,440.5313 63.4313,440.5313 Q62.0875,440.5313 61.4,441.6094 Q60.7125,442.6719 60.7125,444.7656 Q60.7125,446.8594 61.4,447.9375 Q62.0875,449 63.4313,449 Q64.0563,449 64.65,448.7344 Q65.2438,448.4531 65.8688,447.875 L65.8688,450.5938 Z "/><text fill="#000000" font-family="sans-serif" font-size="12" lengthAdjust="spacingAndGlyphs" textLength="51" x="81.1" y="449.1074">Readme</text><line style="stroke: #A80036; stroke-width: 1.5;" x1="30" x2="153" y1="460.9531" y2="460.9531"/><rect fill="none" height="6" style="stroke: #C82930; stroke-width: 1.0;" width="6" x="37" y="469.8555"/><text fill="#000000" font-family="sans-serif" font-size="11" lengthAdjust="spacingAndGlyphs" textLength="81" x="49" y="475.1636">__readme_hdr</text><rect fill="none" height="6" style="stroke: #C82930; stroke-width: 1.0;" width="6" x="37" y="482.6602"/><text fill="#000000" font-family="sans-serif" font-size="11" lengthAdjust="spacingAndGlyphs" textLength="56" x="49" y="487.9683">__readme</text><rect fill="none" height="6" style="stroke: #C82930; stroke-width: 1.0;" width="6" x="37" y="495.4648"/><text fill="#000000" font-family="sans-serif" font-size="11" lengthAdjust="spacingAndGlyphs" textLength="86" x="49" y="500.7729">__absdetailsdir</text><rect fill="none" height="6" style="stroke: #C82930; stroke-width: 1.0;" width="6" x="37" y="508.2695"/><text fill="#000000" font-family="sans-serif" font-size="11" lengthAdjust="spacingAndGlyphs" textLength="65" x="49" y="513.5776">__detailsdir</text><line style="stroke: #A80036; stroke-width: 1.5;" x1="30" x2="153" y1="520.1719" y2="520.1719"/><rect fill="#F24D5C" height="6" style="stroke: #C82930; stroke-width: 1.0;" width="6" x="37" y="529.0742"/><text fill="#000000" font-family="sans-serif" font-size="11" lengthAdjust="spacingAndGlyphs" textLength="49" x="49" y="534.3823">__init__()</text><rect fill="#F24D5C" height="6" style="stroke: #C82930; stroke-width: 1.0;" width="6" x="37" y="541.8789"/><text fill="#000000" font-family="sans-serif" font-size="11" lengthAdjust="spacingAndGlyphs" textLength="80" x="49" y="547.187">__wiki_tblhdr()</text><rect fill="#F24D5C" height="6" style="stroke: #C82930; stroke-width: 1.0;" width="6" x="37" y="554.6836"/><text fill="#000000" font-family="sans-serif" font-size="11" lengthAdjust="spacingAndGlyphs" textLength="82" x="49" y="559.9917">__wiki_tblrow()</text><rect fill="#F24D5C" height="6" style="stroke: #C82930; stroke-width: 1.0;" width="6" x="37" y="567.4883"/><text fill="#000000" font-family="sans-serif" font-size="11" lengthAdjust="spacingAndGlyphs" textLength="74" x="49" y="572.7964">__wiki_tblftr()</text><ellipse cx="40" cy="583.293" fill="#84BE84" rx="3" ry="3" style="stroke: #038048; stroke-width: 1.0;"/><text fill="#000000" font-family="sans-serif" font-size="11" lengthAdjust="spacingAndGlyphs" textLength="92" x="49" y="585.6011">__write_details()</text><ellipse cx="40" cy="596.0977" fill="#84BE84" rx="3" ry="3" style="stroke: #038048; stroke-width: 1.0;"/><text fill="#000000" font-family="sans-serif" font-size="11" lengthAdjust="spacingAndGlyphs" textLength="82" x="49" y="598.4058">write_header()</text><ellipse cx="40" cy="608.9023" fill="#84BE84" rx="3" ry="3" style="stroke: #038048; stroke-width: 1.0;"/><text fill="#000000" font-family="sans-serif" font-size="11" lengthAdjust="spacingAndGlyphs" textLength="99" x="49" y="611.2104">write_all_details()</text><ellipse cx="40" cy="621.707" fill="#84BE84" rx="3" ry="3" style="stroke: #038048; stroke-width: 1.0;"/><text fill="#000000" font-family="sans-serif" font-size="11" lengthAdjust="spacingAndGlyphs" textLength="70" x="49" y="624.0151">write_table()</text><!--class main--><rect fill="#FEFECE" filter="url(#f1w63whutjw4fq)" height="48" id="main" style="stroke: #A80036; stroke-width: 1.5;" width="62" x="324.5" y="28.9531"/><ellipse cx="339.5" cy="44.9531" fill="#ADD1B2" rx="11" ry="11" style="stroke: #A80036; stroke-width: 1.0;"/><path d="M342.4688,50.5938 Q341.8906,50.8906 341.25,51.0313 Q340.6094,51.1875 339.9063,51.1875 Q337.4063,51.1875 336.0781,49.5469 Q334.7656,47.8906 334.7656,44.7656 Q334.7656,41.6406 336.0781,39.9844 Q337.4063,38.3281 339.9063,38.3281 Q340.6094,38.3281 341.25,38.4844 Q341.9063,38.6406 342.4688,38.9375 L342.4688,41.6563 Q341.8438,41.0781 341.25,40.8125 Q340.6563,40.5313 340.0313,40.5313 Q338.6875,40.5313 338,41.6094 Q337.3125,42.6719 337.3125,44.7656 Q337.3125,46.8594 338,47.9375 Q338.6875,49 340.0313,49 Q340.6563,49 341.25,48.7344 Q341.8438,48.4531 342.4688,47.875 L342.4688,50.5938 Z "/><text fill="#000000" font-family="sans-serif" font-size="12" lengthAdjust="spacingAndGlyphs" textLength="30" x="353.5" y="49.1074">main</text><line style="stroke: #A80036; stroke-width: 1.5;" x1="325.5" x2="385.5" y1="60.9531" y2="60.9531"/><line style="stroke: #A80036; stroke-width: 1.5;" x1="325.5" x2="385.5" y1="68.9531" y2="68.9531"/><ellipse cx="91.5" cy="260.9531" fill="#000000" rx="2" ry="2" style="stroke: none; stroke-width: 1.0;"/><!--link main to Args--><path d="M386.5878,75.3941 C396.8136,84.188 407.3749,95.0349 414.5,106.9531 C423.062,121.2749 429.7554,137.4284 434.985,153.7481 " fill="none" id="main-Args" style="stroke: #A80036; stroke-width: 1.0;"/><text fill="#000000" font-family="sans-serif" font-size="13" lengthAdjust="spacingAndGlyphs" textLength="112" x="424.5" y="120.02">fetch parsed args</text><polygon fill="#000000" points="476,129.0859,479,135.0859,482,129.0859,476,129.0859" style="stroke: #000000; stroke-width: 1.0;"/><!--link main to Logger--><path d="M386.6287,57.7513 C436.928,66.0623 533.0237,84.4268 558.5,106.9531 C584.9497,130.3401 600.2828,166.6075 609.0819,198.0733 " fill="none" id="main-Logger" style="stroke: #A80036; stroke-width: 1.0;"/><text fill="#000000" font-family="sans-serif" font-size="13" lengthAdjust="spacingAndGlyphs" textLength="85" x="574.5" y="120.02">create logger</text><polygon fill="#000000" points="662.5,114.0195,668.5,117.0195,662.5,120.0195,662.5,114.0195" style="stroke: #000000; stroke-width: 1.0;"/><!--link main to ResultSet--><path d="M324.4309,59.7906 C299.8881,67.0036 267.2393,81.0463 251.5,106.9531 C233.9259,135.8799 235.1851,173.8219 240.956,204.8062 " fill="none" id="main-ResultSet" style="stroke: #A80036; stroke-width: 1.0;"/><text fill="#000000" font-family="sans-serif" font-size="13" lengthAdjust="spacingAndGlyphs" textLength="140" x="252.5" y="120.02">fetch analysed results</text><polygon fill="#000000" points="318,129.0859,321,135.0859,324,129.0859,318,129.0859" style="stroke: #000000; stroke-width: 1.0;"/><!--link main to apoint15--><path d="M324.066,55.3518 C264.1427,60.6117 136.9811,75.3034 108.5,106.9531 C66.3966,153.7406 87.0598,243.6633 90.9222,258.7732 " fill="none" id="main-apoint15" style="stroke: #A80036; stroke-width: 1.0;"/><polygon fill="#000000" points="116.5,114.0195,110.5,117.0195,116.5,120.0195,116.5,114.0195" style="stroke: #000000; stroke-width: 1.0;"/><text fill="#000000" font-family="sans-serif" font-size="13" lengthAdjust="spacingAndGlyphs" textLength="113" x="122.5" y="120.02">create main page</text><!--link apoint15 to Readme--><path d="M91.5,262.9637 C91.5,276.7862 91.5,359.2694 91.5,428.9458 " fill="none" id="apoint15-Readme" style="stroke: #A80036; stroke-width: 1.0;"/><!--link apoint15 to ResultSet--><path d="M93.7695,260.9531 C130.6515,260.9531 167.5335,260.9531 204.4155,260.9531 " fill="none" id="apoint15-ResultSet" style="stroke: #A80036; stroke-width: 1.0; stroke-dasharray: 7.0,7.0;"/><!--link ResultSet to Result--><path d="M257.5,330.3618 C257.5,360.3441 257.5,396.0128 257.5,428.8471 " fill="none" id="ResultSet-Result" style="stroke: #A80036; stroke-width: 1.0;"/><polygon fill="#A80036" points="257.5,317.0169,253.5,323.0169,257.5,329.0169,261.5,323.0169,257.5,317.0169" style="stroke: #A80036; stroke-width: 1.0;"/><text fill="#000000" font-family="sans-serif" font-size="13" lengthAdjust="spacingAndGlyphs" textLength="8" x="248.9875" y="337.2349">1</text><text fill="#000000" font-family="sans-serif" font-size="13" lengthAdjust="spacingAndGlyphs" textLength="7" x="250.243" y="417.9558">*</text><!--link Result to InvalidResultError--><path d="M324.6595,571.8619 C356.6329,594.7665 393.116,625.6553 417.5,660.9531 C432.5347,682.717 442.1699,710.7479 448.1015,733.8026 " fill="none" id="Result-InvalidResultError" style="stroke: #A80036; stroke-width: 1.0;"/><text fill="#000000" font-family="sans-serif" font-size="13" lengthAdjust="spacingAndGlyphs" textLength="112" x="427.5" y="674.02">raise on bad data</text><polygon fill="#000000" points="479,683.0859,482,689.0859,485,683.0859,479,683.0859" style="stroke: #000000; stroke-width: 1.0;"/><!--link Result to ResultDetails--><path d="M254.4966,631.0589 C254.3059,646.7581 254.2703,662.792 254.5,677.9531 C254.6784,689.7306 254.9761,702.2935 255.3165,714.3782 " fill="none" id="Result-ResultDetails" style="stroke: #A80036; stroke-width: 1.0;"/><text fill="#000000" font-family="sans-serif" font-size="13" lengthAdjust="spacingAndGlyphs" textLength="144" x="255.5" y="674.02">create from JSON data</text><polygon fill="#000000" points="323,683.0859,326,689.0859,329,683.0859,323,683.0859" style="stroke: #000000; stroke-width: 1.0;"/><!--link Result to Score--><path d="M180.1989,624.6539 C177.3459,626.8661 174.4444,628.9734 171.5,630.9531 C136.1601,654.7148 109.4863,629.7549 80.5,660.9531 C68.5605,673.8037 61.3433,690.8093 57.0319,707.8268 " fill="none" id="Result-Score" style="stroke: #A80036; stroke-width: 1.0;"/><polygon fill="#A80036" points="190.3077,616.2248,183.1379,616.9952,181.0913,623.9098,188.2612,623.1394,190.3077,616.2248" style="stroke: #A80036; stroke-width: 1.0;"/><polygon fill="#000000" points="88.5,668.0195,82.5,671.0195,88.5,674.0195,88.5,668.0195" style="stroke: #000000; stroke-width: 1.0;"/><text fill="#000000" font-family="sans-serif" font-size="13" lengthAdjust="spacingAndGlyphs" textLength="151" x="94.5" y="674.02">create Embench scores</text><text fill="#000000" font-family="sans-serif" font-size="13" lengthAdjust="spacingAndGlyphs" textLength="8" x="174.521" y="621.9334">1</text><text fill="#000000" font-family="sans-serif" font-size="13" lengthAdjust="spacingAndGlyphs" textLength="8" x="49.1899" y="697.0174">3</text><!--
@startuml

title Class Diagram for process-results

class Args {
  -__rootdir
  -__raw[]
  -__cooked[]
  -__init__()
  -__absresdir()
  -__detailsdir()
  -__readme()
  -__resfiles()
  -__log_raw()
  -__log_cooked()
  +abslogdir()
  +all_ags()
  +log_args()
}

class Score {
  -__geomean
  -__geosd
  -__init__()
  +geomean()
  +geosd()
  +range_lo()
  +range_hi()
}

class ResultDetails {
  -__resfile
  -__json_data[]
  -__init__()
  +desc()
  +json_data()
  +details_page()
}

class InvalidResultError {
  +missing_fields
  +missing_platform_fields
  -__init__()
}

class Result {
  -__result_details
  -__scores[]
  -__init__()
  -__validate_data()
  +write_details()
  +details_wikipage()
  +desc()
  +arch()
  +embench_version()
  +cpu_mhz()
  +details()
  +details_page()
}

class ResultSet {
  -__results[]
  -__init()__
  -__collate_file()
  -sort()
  -results()
}

class Logger {
  -__log
  -__init__()
  +info()
  +debug()
  +warning()
  +error()
}

class Readme {
  -__readme_hdr
  -__readme
  -__absdetailsdir
  -__detailsdir
  -__init__()
  -__wiki_tblhdr()
  -__wiki_tblrow()
  -__wiki_tblftr()
  +__write_details()
  +write_header()
  +write_all_details()
  +write_table()
}

class main

main - - Args : fetch parsed args >
main - - Logger : create logger >
main - - ResultSet : fetch analysed results >
main - - Readme : create main page >
(main, Readme) .. ResultSet

ResultSet "1" *- - "*" Result
Result - - InvalidResultError : raise on bad data >
Result - - ResultDetails : create from JSON data >
Result "1" *- - "3" Score : create Embench scores >

@enduml

PlantUML version 1.2018.13(Mon Nov 26 17:11:51 GMT 2018)
(GPL source distribution)
Java Runtime: OpenJDK Runtime Environment
JVM: OpenJDK 64-Bit Server VM
Java Version: 11.0.6+10-post-Ubuntu-1ubuntu119.10.1
Operating System: Linux
OS Version: 5.3.0-40-generic
Default Encoding: UTF-8
Language: en
Country: GB
--></g></svg>